<?xml version="1.0" standalone="no"?>
<!DOCTYPE svg PUBLIC "-//W3C//DTD SVG 20010904//EN"
 "http://www.w3.org/TR/2001/REC-SVG-20010904/DTD/svg10.dtd">
<svg version="1.0" xmlns="http://www.w3.org/2000/svg"
 width="45.000000pt" height="18.000000pt" viewBox="0 0 45.000000 18.000000"
 preserveAspectRatio="xMidYMid meet">

<g transform="translate(0.000000,18.000000) scale(0.100000,-0.100000)"
fill="#000000" stroke="none">
<path d="M330 90 c0 -73 2 -80 20 -80 12 0 20 7 20 17 0 15 1 15 18 0 15 -14
21 -15 36 -4 16 12 16 14 2 26 -20 17 -20 30 0 53 16 16 15 18 0 24 -10 4 -22
2 -29 -5 -18 -18 -27 -13 -27 19 0 23 -4 30 -20 30 -18 0 -20 -7 -20 -80z"/>
<path d="M38 133 c-15 -4 -18 -16 -18 -64 0 -52 2 -60 18 -57 12 2 18 15 21
43 l5 40 5 -40 c5 -31 10 -40 26 -40 16 0 21 9 26 40 l5 40 5 -40 c3 -32 8
-40 24 -40 17 0 20 8 23 46 4 61 -12 77 -75 76 -26 0 -56 -2 -65 -4z"/>
<path d="M223 130 c-12 -5 -25 -21 -29 -35 -15 -60 41 -104 91 -71 33 22 35
78 3 100 -25 18 -33 19 -65 6z m40 -67 c-4 -10 -9 -11 -16 -4 -5 5 -7 18 -3
28 6 14 9 15 16 4 4 -8 6 -21 3 -28z"/>
</g>
</svg>
